<svg width="1016" height="150" viewBox="0 0 1016 150" fill="none" xmlns="http://www.w3.org/2000/svg">
<path d="M915.192 149.962C854.79 149.962 814.384 126.218 814.384 75.1894C814.384 24.1606 854.582 0 915.192 0C975.802 0 1016 24.1606 1016 75.1894C1016 126.218 975.594 149.962 915.192 149.962ZM915.192 108.306C950.392 108.306 970.595 98.9335 970.595 74.9811C970.595 51.0288 950.392 41.6562 915.192 41.6562C879.992 41.6562 859.789 51.0288 859.789 74.9811C859.789 98.9335 879.992 108.306 915.192 108.306Z" fill="#FFE66C"/>
<path d="M732.351 147.878V42.6963H699.026V2.08154H810.457V42.6963H777.132V147.878H732.351Z" fill="#FFE66C"/>
<path d="M636.337 147.878V2.08154H681.118V147.878H636.337Z" fill="#FFE66C"/>
<path d="M506.16 148.589V2.79272H572.394C599.47 2.79272 615.091 19.4552 615.091 39.8667C615.091 51.5305 610.093 63.4025 598.22 70.9006C616.549 77.7739 621.965 91.7287 621.965 105.267C621.965 129.011 605.302 148.589 576.143 148.589H506.16ZM550.941 115.264H557.397C571.352 115.264 578.642 113.39 578.642 104.85C578.642 96.3109 571.56 94.0198 557.397 94.0198H550.941V115.264ZM550.941 56.5292H552.607C566.77 56.5292 571.769 54.863 571.769 46.5317C571.769 38.2005 566.77 36.1177 552.607 36.1177H550.941V56.5292Z" fill="#FFE66C"/>
<path d="M336.512 147.878V2.08154H405.87C435.029 2.08154 458.981 16.6612 458.981 49.9862C458.981 68.3149 451.692 81.0201 440.653 88.7264L491.057 147.462V147.878H436.279L398.163 97.8908H381.292V147.878H336.512ZM379.834 64.5658H394.206C408.369 64.5658 414.409 61.6499 414.409 50.1945C414.409 38.739 408.369 35.4065 394.206 35.4065H379.834V64.5658Z" fill="#FFE66C"/>
<path d="M218.832 149.962C158.43 149.962 118.024 126.218 118.024 75.1894C118.024 24.1606 158.222 0 218.832 0C279.442 0 319.64 24.1606 319.64 75.1894C319.64 126.218 279.234 149.962 218.832 149.962ZM218.832 108.306C254.031 108.306 274.235 98.9335 274.235 74.9811C274.235 51.0288 254.031 41.6562 218.832 41.6562C183.632 41.6562 163.429 51.0288 163.429 74.9811C163.429 98.9335 183.632 108.306 218.832 108.306Z" fill="#FFE66C"/>
<path d="M55.6111 149.962C19.7867 149.962 0 130.592 0 100.6H47.4882C47.0716 108.098 50.4041 113.513 56.4443 113.513C59.7768 113.513 63.5258 111.847 63.5258 107.265C63.5258 101.849 59.985 98.7252 53.9449 96.4341L35.6161 89.1442C16.6625 81.6461 0.416563 67.483 0.416563 44.3638C0.416563 17.4956 20.6199 0 52.9035 0C85.3954 0 105.39 16.4542 106.015 45.197H61.0264C61.2347 37.9071 57.2774 34.3664 52.9035 34.3664C48.7378 34.3664 45.8219 37.4906 45.8219 41.4479C45.8219 45.197 48.9461 49.9874 57.9022 53.7365L76.6476 61.6512C96.226 69.9824 109.764 82.0627 109.764 103.932C109.764 131.842 89.561 149.962 55.6111 149.962Z" fill="#FFE66C"/>
</svg>
